<svg xmlns="http://www.w3.org/2000/svg" viewBox="0 0 48 48" fill="none">
  <defs>
    <linearGradient id="logoGrad" x1="0%" y1="0%" x2="100%" y2="100%">
      <stop offset="0%" stop-color="#6366f1"/>
      <stop offset="100%" stop-color="#8b5cf6"/>
    </linearGradient>
    <linearGradient id="accentGrad" x1="0%" y1="0%" x2="100%" y2="100%">
      <stop offset="0%" stop-color="#22d3ee"/>
      <stop offset="100%" stop-color="#6366f1"/>
    </linearGradient>
  </defs>
  
  <!-- Receipt base shape with torn bottom edge -->
  <path d="M8 6C8 4.89543 8.89543 4 10 4H38C39.1046 4 40 4.89543 40 6V38L37 41L34 38L31 41L28 38L25 41L22 38L19 41L16 38L13 41L10 38L8 40V6Z" fill="url(#logoGrad)"/>
  
  <!-- Receipt lines -->
  <rect x="14" y="12" width="20" height="3" rx="1.5" fill="white" opacity="0.9"/>
  <rect x="14" y="19" width="14" height="2" rx="1" fill="white" opacity="0.6"/>
  <rect x="14" y="25" width="18" height="2" rx="1" fill="white" opacity="0.6"/>
  
  <!-- Checkmark circle (payment confirmed) -->
  <circle cx="36" cy="32" r="10" fill="url(#accentGrad)"/>
  <path d="M31 32L34.5 35.5L41 28" stroke="white" stroke-width="2.5" stroke-linecap="round" stroke-linejoin="round" fill="none"/>
</svg>
